<?xml version="1.0" standalone="no"?>
<!DOCTYPE svg PUBLIC "-//W3C//DTD SVG 20010904//EN"
 "http://www.w3.org/TR/2001/REC-SVG-20010904/DTD/svg10.dtd">
<svg version="1.0" xmlns="http://www.w3.org/2000/svg"
 width="512.000000pt" height="512.000000pt" viewBox="0 0 512.000000 512.000000"
 preserveAspectRatio="xMidYMid meet">

<g transform="translate(0.000000,512.000000) scale(0.100000,-0.100000)"
fill="#ffffff" stroke="none">
<path d="M2118 4900 c-158 -20 -340 -88 -475 -177 -72 -48 -192 -160 -248
-233 -145 -190 -218 -409 -218 -650 0 -148 19 -256 70 -384 151 -382 481 -632
895 -677 302 -33 636 87 847 305 l45 46 69 -75 c169 -184 377 -276 622 -278
406 -2 741 259 837 652 29 118 29 294 -1 406 -85 321 -337 560 -659 627 -217
45 -460 -3 -641 -126 -30 -20 -55 -35 -56 -34 -2 2 -20 32 -41 68 -73 127
-190 256 -311 343 -60 44 -206 117 -278 141 -134 42 -328 62 -457 46z m257
-435 c287 -60 505 -329 505 -625 0 -236 -140 -463 -350 -568 -110 -55 -207
-76 -325 -69 -167 10 -298 70 -421 193 -247 246 -244 645 5 895 156 155 370
219 586 174z m1541 -455 c263 -129 324 -463 123 -675 -205 -217 -557 -160
-690 110 -32 66 -34 75 -34 180 0 103 2 114 32 177 53 113 137 187 258 231 38
13 73 17 146 14 85 -2 103 -6 165 -37z"/>
<path d="M2254 2660 c-140 -21 -289 -102 -383 -207 -87 -98 -160 -266 -161
-370 l0 -33 -436 218 -435 217 -92 0 c-112 0 -164 -22 -237 -102 -84 -92 -80
-48 -80 -890 0 -709 1 -745 19 -793 29 -77 82 -134 154 -169 82 -40 139 -47
215 -27 35 9 236 103 471 221 226 113 413 205 416 205 3 0 5 -12 5 -27 0 -53
31 -158 68 -233 54 -110 168 -223 282 -279 149 -73 116 -71 1140 -71 1024 0
991 -2 1140 71 114 56 228 169 282 279 68 138 68 135 68 825 0 694 0 689 -70
825 -78 148 -212 263 -373 317 l-82 28 -930 1 c-511 1 -953 -2 -981 -6z m1897
-448 c39 -20 62 -41 84 -77 l30 -48 0 -591 0 -591 -25 -45 c-14 -24 -45 -58
-68 -75 l-44 -30 -906 -3 c-626 -2 -918 0 -944 8 -49 14 -94 53 -121 104 -21
41 -22 44 -22 632 l0 591 30 48 c22 36 45 57 84 77 l53 28 898 0 898 0 53 -28z
m-2871 -422 l420 -210 0 -85 0 -85 -420 -210 c-231 -115 -422 -210 -425 -210
-3 0 -5 227 -5 505 0 278 2 505 5 505 3 0 194 -95 425 -210z"/>
</g>
</svg>
